<?xml version="1.0" encoding="utf-8"?>
<!-- Generator: Adobe Illustrator 26.2.1, SVG Export Plug-In . SVG Version: 6.00 Build 0)  -->
<svg version="1.1" id="Brasao" xmlns="http://www.w3.org/2000/svg" xmlns:xlink="http://www.w3.org/1999/xlink" x="0px" y="0px"
	 width="1200px" height="800px" viewBox="0 0 1200 800" style="enable-background:new 0 0 1200 800;" xml:space="preserve">
<style type="text/css">
	.st0{fill:#8B0144;}
	.st1{fill:#58595B;}
	.st2{fill-rule:evenodd;clip-rule:evenodd;fill:#58595B;}
</style>
<g>
	<g id="Simbolo">
		<g>
			<path class="st0" d="M138.8,538.5l1.6,3.2c-2.2,1.2-2.6,3-1.6,4.9c1.1,2.1,2.8,2.5,4.6,1.6c4.3-2.2-0.2-11.4,6.2-14.7
				c3.1-1.6,6.6-0.6,8.5,3.1c1.9,3.7,0.7,7.2-2.9,9.2l-1.6-3.2c2-1.1,2.5-2.7,1.6-4.4c-0.9-1.7-2.5-2.3-4-1.5
				c-4.2,2.2,0.5,11.3-6.2,14.7c-3.2,1.7-7.1,0.8-9.2-3.2C133.8,544.3,134.9,540.5,138.8,538.5z"/>
			<path class="st0" d="M147.9,554.2l8.2-5.7c4.1-2.8,7.8-2,10.3,1.5c2.5,3.6,1.8,7.3-2.1,10.2l-2-2.9c2.2-1.8,2.6-3.5,1.3-5.5
				c-1.2-1.7-3.1-2-5.5-0.4l-8.3,5.7c-2.4,1.6-2.7,3.5-1.6,5.3c1.3,1.9,3.2,2.3,5.6,0.8l2,2.9c-4.1,2.5-7.8,1.8-10.3-1.8
				C143.2,560.8,143.8,557,147.9,554.2z"/>
			<path class="st0" d="M174.3,561l-18.6,15.7l-2.3-2.7l18.6-15.7L174.3,561z"/>
			<path class="st0" d="M171.2,587.7l-2.3,2.4l-8.9-8.5l16.9-17.5l8.6,8.3l-2.3,2.4l-6.1-5.8l-4.9,5.1l5.6,5.4l-2.3,2.3l-5.6-5.4
				l-5.2,5.4L171.2,587.7z"/>
			<path class="st0" d="M199.5,582.5l-14,19.9l-2.9-2l2.4-12.9c0.4-1.9,1.1-4.6,1.5-6.2h-0.1c-1.2,2.1-3.2,5.2-4.5,7.1l-5.4,7.7
				l-2.9-2l14-19.9l2.9,2l-2.5,13.4c-0.3,1.7-0.9,4.1-1.3,5.7h0.1c1.1-2.1,3.1-5.2,4.3-7l5.5-7.8L199.5,582.5z"/>
			<path class="st0" d="M211.9,592.5l-4.5-2.3l-9.4,18.8l-3.2-1.6l9.4-18.8l-4.5-2.3l1.5-3l12.3,6.1L211.9,592.5z"/>
			<path class="st0" d="M218.7,591.5l-8.8,22.7l-3.3-1.3l8.8-22.7L218.7,591.5z"/>
			<path class="st0" d="M225.9,614.1l-6.2-1.7l-2.4,4.4l-3.5-1l12.5-21.8l3.6,1l-0.8,25.1l-3.5-1L225.9,614.1z M226.1,610.8l0.3-6.7
				c0.1-1.6,0.4-4,0.6-5.3l-0.1,0c-0.5,1.2-1.5,3.3-2.3,4.8l-3.2,5.9L226.1,610.8z"/>
			<path class="st0" d="M236.4,618l-3.5,7.6l-2-0.4l2.3-7.8L236.4,618z"/>
			<path class="st0" d="M248.3,598.9l3.7,0.3l1.7,13.6c0.3,2.2,0.5,4.6,0.7,6.5h0.1c0.5-1.9,1.1-4.2,1.8-6.4l4.1-13.1l3.6,0.3
				L256,624l-3.8-0.3L248.3,598.9z"/>
			<path class="st0" d="M269.6,600.3l-0.1,24.4H266l0.1-24.4H269.6z"/>
			<path class="st0" d="M286.3,603.2l-5.1,0.2l0.8,21l-3.6,0.1l-0.8-21l-5,0.2l-0.1-3.3l13.7-0.5L286.3,603.2z"/>
			<path class="st0" d="M298.6,618l-6.4,0.8l-0.5,5l-3.7,0.5l3.1-24.9l3.8-0.5l9,23.4l-3.6,0.4L298.6,618z M297.4,614.9l-2.3-6.3
				c-0.5-1.6-1.2-3.8-1.6-5.1h-0.1c0,1.3-0.1,3.7-0.3,5.3l-0.7,6.7L297.4,614.9z"/>
			<path class="st0" d="M327.6,612.7l1,3.2l-11.7,3.6l-7.1-23.3l11.4-3.5l1,3.2l-8.1,2.5l2.1,6.7l7.4-2.3l0.9,3.1l-7.4,2.3l2.2,7.1
				L327.6,612.7z"/>
			<path class="st0" d="M336.1,589.6l-4.6,2.1l8.8,19.1l-3.3,1.5l-8.8-19.1l-4.6,2.1l-1.4-3l12.5-5.7L336.1,589.6z"/>
			<path class="st0" d="M347,582.4l4.4,5.8l5.9-4.4l1.9,2.5l-5.9,4.4l6.4,8.5l-2.8,2.1l-14.6-19.5l9.2-6.9l2,2.6L347,582.4z"/>
			<path class="st0" d="M355.6,570.8l16.7,17.8l-2.5,2.4l-16.7-17.8L355.6,570.8z"/>
			<path class="st0" d="M358.5,568.1l3.9-4.7c3-3.6,7-4,10.6-0.9l7,5.8c3.7,3.1,4.1,7.1,1.1,10.6l-3.9,4.7L358.5,568.1z M378.5,577
				c1.6-1.9,1.4-4-0.8-5.8l-6.9-5.7c-2.2-1.8-4.2-1.7-5.8,0.2l-1.6,2l13.6,11.4L378.5,577z"/>
			<path class="st0" d="M393.2,555.8l2.8,1.7l-6.5,10.5l-20.7-12.8l6.3-10.1l2.8,1.7l-4.4,7.2l6,3.7l4.1-6.6l2.7,1.7l-4.1,6.6
				l6.3,3.9L393.2,555.8z"/>
			<path class="st0" d="M392,551.1l1.5-3.3c2.3,1,4,0.3,4.9-1.6c1-2.1,0.2-3.7-1.6-4.6c-4.4-2-9,7.1-15.5,4
				c-3.2-1.5-4.5-4.9-2.8-8.7c1.7-3.8,5.2-4.9,9-3.3l-1.5,3.3c-2.1-0.9-3.7-0.3-4.5,1.4c-0.8,1.8-0.3,3.3,1.3,4.1
				c4.3,2,8.6-7.3,15.5-4.1c3.3,1.5,5,5.1,3.1,9.3C399.6,551.5,396.1,552.9,392,551.1z"/>
		</g>
		<g>
			<path class="st0" d="M268.8,242.4c2,1.4,17.7,11.5,30.1-0.5c0.4-0.4,0.4-0.9,0-1.3c-2.5-2.4-11.8-10.9-22.9-17.6
				c-0.1,0-0.2-0.2-0.2-0.3v-16.3c0-0.2,0.2-0.4,0.4-0.4h12.6c0.5,0,0.9-0.4,0.9-0.9v-12.7c0-0.5-0.4-0.9-0.9-0.9h-12.6
				c-0.2,0-0.4-0.2-0.4-0.4v-15.6c0-0.5-0.4-0.9-0.9-0.9h-12.7c-0.5,0-0.9,0.4-0.9,0.9V191c0,0.2-0.2,0.4-0.4,0.4h-12.6
				c-0.5,0-0.9,0.4-0.9,0.9V205c0,0.5,0.4,0.9,0.9,0.9h12.6c0.2,0,0.4,0.2,0.4,0.4v16.3c0,0.1,0,0.2-0.2,0.3
				c-11,6.7-20.3,15.2-22.9,17.6c-0.4,0.4-0.4,0.9,0,1.3c12.4,12.1,28.1,1.9,30.1,0.5C268.5,242.3,268.7,242.3,268.8,242.4z"/>
			<path class="st0" d="M268.7,277.8c2.5,1.4,30.3,16.1,51-0.8c0.3-0.3,0.4-0.7,0.2-1.1c-0.9-2.1-4.1-8.8-9.4-16.9
				c-0.2-0.3-0.5-0.4-0.8-0.4h-82.6c-0.3,0-0.6,0.1-0.8,0.4c-5.3,8.1-8.4,14.9-9.4,16.9c-0.2,0.4,0,0.8,0.2,1.1
				c20.7,16.9,48.5,2.3,51,0.8C268.5,277.7,268.7,277.7,268.7,277.8z"/>
		</g>
		<g>
			<path class="st0" d="M307.5,425.4l-33.8,19.8c-0.6,0.3-1.3-0.1-1.3-0.8v-36.8c0-0.3,0.2-0.6,0.4-0.8l33.8-19.8
				c0.6-0.3,1.3,0.1,1.3,0.8v36.8C307.9,424.9,307.8,425.2,307.5,425.4z"/>
			<path class="st0" d="M229.6,425.4l33.8,19.8c0.6,0.3,1.3-0.1,1.3-0.8v-36.8c0-0.3-0.2-0.6-0.4-0.8l-33.8-19.8
				c-0.6-0.3-1.3,0.1-1.3,0.8v36.8C229.2,424.9,229.4,425.2,229.6,425.4z"/>
			<path class="st0" d="M334.2,489.7l-60.5,35.4c-0.6,0.3-1.3-0.1-1.3-0.8V454c0-0.3,0.2-0.6,0.4-0.8l60.5-35.4
				c0.6-0.3,1.3,0.1,1.3,0.8v70.3C334.7,489.3,334.5,489.5,334.2,489.7z"/>
			<path class="st0" d="M202.9,489.7l60.5,35.4c0.6,0.3,1.3-0.1,1.3-0.8V454c0-0.3-0.2-0.6-0.4-0.8l-60.5-35.4
				c-0.6-0.3-1.3,0.1-1.3,0.8v70.3C202.5,489.3,202.6,489.5,202.9,489.7z"/>
		</g>
		<path class="st0" d="M211.3,296.2c-0.3,0-0.6-0.2-0.8-0.6c-1.3-4.3-4-8.2-8-10.9L155.2,252c-7.7-5.4-18.3-3.4-23.7,4.3l-4.4,6.4
			l-18.6-11.8c-0.4-0.2-0.8-0.1-1.1,0.2l-7.4,11.7c-0.2,0.4-0.1,0.8,0.2,1.1l18,11.4L78,333.6c-0.2,0.3-0.1,0.8,0.2,1.1l46,31.9
			c0.3,0.2,0.8,0.1,1.1-0.2l50.5-72.8c4.5-6.1,13.7-6.3,20-1.9c5.7,4,7.9,11,6.1,17.3c-0.1,0.5-0.7,0.7-1.2,0.4l-16.9-10.8
			c-0.3-0.2-0.8-0.1-1,0.2l-7.9,11.4c-0.2,0.4-0.1,0.8,0.2,1.1l63,40c0.3,0.2,0.2,0.7-0.2,0.7h-65.7c-0.4,0-0.8,0.3-0.8,0.8v61.1
			c0,0.1,0,0.2-0.2,0.3L127.3,442c-0.3,0.2-0.7-0.1-0.6-0.5c1.4-4.1,2-8.5,1.6-13.1c-1.3-15.5-13.9-27.9-29.5-28.9
			c-18.5-1.2-33.8,13.4-33.8,31.7c0,6.8,2.2,13.1,5.8,18.3c0.1,0.2,0,0.5-0.2,0.6c-13.8,4.1-23.7,17.3-22.7,32.7
			c1.1,15.7,13.8,28.4,29.4,29.4c10,0.7,19.2-3.3,25.4-10c0.2-0.2,0.5-0.1,0.6,0.1c5.6,10.3,16.6,17.2,29.3,16.7
			c16.6-0.7,30.1-14.5,30.3-31.1c0.3-16.4-11.7-29.9-27.4-32c-0.4,0-0.5-0.5-0.1-0.7l35.2-22.3c0.2-0.1,0.6,0,0.6,0.3v40
			c0,53.7,43.1,98.1,96.8,98.2c53.8,0.2,97.5-43.4,97.5-97.2v-41c0-0.3,0.3-0.5,0.6-0.3l35.2,22.3c0.3,0.2,0.2,0.7-0.1,0.7
			c-15.7,2.1-27.7,15.7-27.4,32c0.3,16.6,13.8,30.4,30.3,31.1c12.6,0.5,23.7-6.4,29.3-16.7c0.1-0.2,0.4-0.3,0.6-0.1
			c6.3,6.7,15.4,10.7,25.4,10c15.7-1,28.4-13.7,29.4-29.4c1-15.4-8.9-28.6-22.7-32.7c-0.2-0.1-0.4-0.4-0.2-0.6
			c3.6-5.1,5.7-11.3,5.8-18c0.2-17.5-14.3-32-31.8-32s-31.7,14.2-31.7,31.7c0,3.6,0.6,7.1,1.7,10.4c0.1,0.3-0.2,0.7-0.6,0.5
			L366,414.2c-0.1-0.1-0.2-0.2-0.2-0.3v-61.1c0-0.4-0.3-0.8-0.8-0.8h-65.7c-0.4,0-0.5-0.5-0.2-0.7l63-40c0.4-0.2,0.5-0.8,0.2-1.1
			l-7.9-11.4c-0.2-0.3-0.7-0.4-1-0.2l-17,10.8c-0.4,0.3-1,0-1.2-0.4c-1.9-6.3,0.4-13.3,6.1-17.3c6.4-4.4,15.5-4.2,20,1.9l50.5,72.8
			c0.2,0.3,0.7,0.4,1.1,0.2l46-31.9c0.3-0.2,0.4-0.7,0.2-1.1l-40.1-58c-0.1-0.2-0.1-0.4,0.1-0.6l17.7-11.2c0.4-0.2,0.5-0.7,0.2-1.1
			l-7.4-11.7c-0.2-0.4-0.7-0.5-1.1-0.2l-18.2,11.6c-0.2,0.1-0.4,0-0.5-0.1l-4.2-6.1c-5.4-7.7-15.9-9.7-23.7-4.3l-47.3,32.8
			c-4,2.7-6.7,6.6-8,10.9c-0.1,0.3-0.4,0.6-0.8,0.6H211.3z M387.9,311l9-6.2c0.2-0.1,0.2-0.4,0.1-0.5l-7.2-10.4l-0.8-1.2
			c-0.2-0.3-0.1-0.8,0.2-1.1l8-5.5c0.3-0.2,0.8-0.1,1.1,0.2l1.1,1.6l7,10c0.1,0.2,0.4,0.2,0.5,0.1l9-6.2c0.3-0.2,0.8-0.1,1.1,0.2
			l5.5,8c0.2,0.3,0.1,0.8-0.2,1.1l-9,6.2c-0.2,0.1-0.2,0.4-0.1,0.5l11.3,16.3c0.2,0.3,0.1,0.8-0.2,1.1l-8,5.5
			c-0.3,0.2-0.8,0.1-1.1-0.2l-11.3-16.3c-0.1-0.2-0.4-0.2-0.5-0.1l-9,6.2c-0.3,0.2-0.8,0.1-1.1-0.2l-5.5-8
			C387.4,311.7,387.5,311.3,387.9,311z M149.5,312.1l-5.5,8c-0.2,0.3-0.7,0.4-1.1,0.2l-9-6.2c-0.2-0.1-0.4-0.1-0.5,0.1l-11.3,16.3
			c-0.2,0.3-0.7,0.4-1.1,0.2l-8-5.5c-0.3-0.2-0.4-0.7-0.2-1.1l11.3-16.3c0.1-0.2,0.1-0.4-0.1-0.5l-9-6.2c-0.3-0.2-0.4-0.7-0.2-1.1
			l5.5-8c0.2-0.3,0.7-0.4,1.1-0.2l9,6.2c0.2,0.1,0.4,0.1,0.5-0.1l7-10.1l1.1-1.6c0.2-0.3,0.7-0.4,1.1-0.2l8,5.5
			c0.3,0.2,0.4,0.7,0.2,1.1l-0.8,1.2l-7.3,10.5c-0.1,0.2-0.1,0.4,0.1,0.5l9,6.2C149.6,311.3,149.7,311.7,149.5,312.1z M81.2,499.3
			c-11.7,0.9-21.3-8.8-20.4-20.4c0.7-9.2,8.2-16.6,17.3-17.3c11.7-0.9,21.3,8.8,20.4,20.4C97.8,491.2,90.4,498.6,81.2,499.3z
			 M98.3,450.1c-11.7,0.9-21.3-8.8-20.4-20.4c0.7-9.2,8.2-16.6,17.3-17.3c11.7-0.9,21.3,8.8,20.4,20.4
			C115,441.9,107.5,449.3,98.3,450.1z M150.3,485.6c0.9,11.7-8.8,21.3-20.4,20.4c-9.2-0.7-16.6-8.2-17.3-17.3
			c-0.9-11.7,8.8-21.3,20.4-20.4C142.2,469,149.6,476.4,150.3,485.6z M222.3,322.1c24.2,8,43.8-5.2,46-6.8c0.1-0.1,0.3-0.1,0.4,0
			c2.3,1.6,21.8,14.8,46,6.8c0.4-0.1,0.7,0.4,0.3,0.7l-45.5,28.9c-0.3,0.2-0.7,0.3-1.1,0.3l0,0c-0.4,0-0.8-0.1-1.1-0.3L222,322.8
			C221.6,322.6,221.9,322,222.3,322.1z M354.2,474c0,47.4-38.5,85.8-85.9,85.6c-47.3-0.1-85.3-39.2-85.3-86.5V364.4
			c0-0.4,0.3-0.8,0.8-0.8h169.7c0.4,0,0.8,0.3,0.8,0.8V474z M407.2,506c-11.7,0.9-21.3-8.8-20.4-20.4c0.7-9.2,8.2-16.6,17.3-17.3
			c11.7-0.9,21.3,8.8,20.4,20.4C423.9,497.8,416.4,505.3,407.2,506z M421.5,432.7c-0.9-11.7,8.8-21.3,20.4-20.4
			c9.2,0.7,16.6,8.2,17.3,17.3c0.9,11.7-8.8,21.3-20.4,20.4C429.7,449.3,422.2,441.9,421.5,432.7z M459,499.3
			c-11.7,0.9-21.3-8.8-20.4-20.4c0.7-9.2,8.2-16.6,17.3-17.3c11.7-0.9,21.3,8.8,20.4,20.4C475.6,491.2,468.2,498.6,459,499.3z"/>
	</g>
	<g id="Texto">
		<g>
			<g>
				<g>
					<path class="st1" d="M618.5,536.9l0.4,5.3c0.1,1.6,0.2,2.7,0.2,3.3l-1,0.2c-1.6-3.5-3.5-6.1-5.7-7.9c-2.3-1.7-5.1-2.6-8.4-2.6
						c-4.1,0-7.3,0.5-9.5,1.5c-3.3,1.4-6.1,3.9-8.4,7.3c-2.3,3.5-3.5,7.7-3.5,12.6c0,2.8,0.4,5.4,1.3,7.6c0.8,2.3,2.1,4.4,3.6,6.3
						s3.4,3.7,5.5,5c1.4,0.9,3.1,1.6,5,2.2c1.1,0.3,2.7,0.4,4.9,0.4c1.4,0,2.9-0.2,4.6-0.6c1.7-0.4,3-0.9,3.8-1.6
						c0.8-0.6,1.5-1.4,1.7-2.3c0.3-0.8,0.5-2.5,0.5-4.9c0-4-0.3-6.3-0.8-7c-0.5-0.7-2.2-1.1-5-1.3l-1.4-0.1l-0.9,0
						c-0.1,0-0.3,0-0.6-0.1l-0.5-0.9c0-0.1,0.1-0.2,0.2-0.4c1.2-0.2,3.8-0.3,7.8-0.3c0.9,0,2.4,0,4.4,0l3.5,0.1l3.3,0
						c0.6,0,1.4,0,2.3,0c0.2,0,0.2,0,0.3,0.1c0,0.1,0.1,0.2,0.1,0.3c0,0.3,0,0.6-0.1,1c-1,0.2-1.7,0.3-2.3,0.3l-2.3,0
						c-0.8,0-1.4,0.3-1.8,0.8c-0.2,0.3-0.3,1.1-0.3,2.6v4.6c0,3.1-0.1,5.1-0.4,5.9c-0.1,0.5-0.4,0.9-0.9,1.4
						c-0.4,0.4-1.4,0.9-2.7,1.5c-2,0.8-3.9,1.4-5.5,1.6c-3.1,0.6-6,0.8-8.8,0.8c-4.6,0-8.3-0.6-11.3-1.7c-2.9-1.1-5.4-2.8-7.5-4.9
						c-2.1-2.1-3.6-4.2-4.5-6.3c-1.4-3.1-2-6.3-2-9.5c0-4.1,1.1-8,3.2-11.9c2.1-3.9,5.6-7,10.3-9.4c3.3-1.7,7.9-2.5,13.7-2.5
						c4,0,7.2,0.3,9.7,1C615,535.2,617,536,618.5,536.9 M629,577.8c3.3-0.4,5.2-0.7,5.7-0.8c0.3-0.1,0.6-0.4,0.8-1v-0.4
						c0-0.6,0.1-2.6,0.3-6.3c0-1,0-2,0-3l-0.1-4.1l0.1-4.7l0-8.7l0-6.2c0-2.6-0.2-4.2-0.6-4.8c-0.4-0.6-1.6-1-3.3-1.2
						c-1.8-0.2-2.8-0.4-3-0.5c-0.2-0.1-0.3-0.3-0.3-0.5c0-0.2,0-0.4,0.1-0.7c0.2-0.2,0.8-0.3,1.6-0.3c0.1,0,0.4,0,0.9-0.1
						c0.5,0,1-0.1,1.5-0.1h2.8l9.1-0.1c5.1,0,8.8,0.4,10.8,1.1c2,0.8,3.7,2.1,4.9,3.9c1.2,1.8,1.8,3.9,1.8,6.1
						c0,4.2-2.3,7.5-6.7,9.7c-0.8,0.4-1.4,0.8-1.8,1.1c0.8,1.6,1.8,3.7,3.3,6l4.4,7.5c1.7,2.8,3,4.5,3.6,5.2
						c0.7,0.7,1.5,1.3,2.5,1.7c0.9,0.4,2.5,0.9,4.9,1.3c0,0.2,0,0.4,0,0.5c0,0.1,0,0.3,0,0.5c-3.2,0-6.9,0-11.1,0
						c-0.3,0-0.7,0-1.2,0c-1.6-3.2-3.5-6.6-5.8-10.4l-5.1-9.3c-0.7-1-1.3-1.6-1.7-1.8c-0.5-0.2-1.1-0.4-1.8-0.4l-2.9,0l-1,0
						c0,0.8-0.1,2.2-0.1,4.5v11.8c0,0.4,0,1.1,0.3,1.8c0.2,0.4,0.5,0.8,0.9,1.1c0.5,0.2,1.7,0.7,3.9,1.2l1.4,0.4
						c0.2,0.2,0.3,0.5,0.3,0.9c-0.6,0.1-1,0.2-1.3,0.2c-2.1,0-3.5,0-4.4,0c-0.5,0-0.8,0-1.1,0l-4.7,0l-4.6,0c-0.2,0-1.2,0-3.2,0.1
						l-0.7-0.1l0-0.3C628.5,578.4,628.6,578.1,629,577.8 M641.8,555.2c0.6,0,1.1,0,1.4,0c1.6,0,3.6-0.2,5.7-0.6
						c1.6-0.3,2.8-0.8,3.7-1.5c0.9-0.7,1.7-1.6,2.4-3c0.7-1.3,0.9-2.7,0.9-4.1c0-1.6-0.5-3.2-1.5-5c-0.8-1.3-2-2.5-3.9-3.3
						s-4-1.3-6.5-1.3c-0.7,0-1.4,0-2.4,0.1c-0.1,1.2-0.1,2.1-0.1,2.7l0.2,6.5v2.7C641.7,550.1,641.7,552.4,641.8,555.2 M691.5,534.5
						c0.1,0.4,0.2,0.7,0.2,0.9c0,0.1,0,0.3-0.1,0.6c-0.6,0.2-1.1,0.2-1.5,0.2c-0.1,0-0.4,0-0.8,0c-0.4,0-0.7,0-0.9,0
						c-1.1,0-1.9,0.2-2.5,0.6c-0.4,0.3-0.7,0.6-0.8,1l-0.3,4l0.1,17.2c0,6.3,0.2,10.2,0.6,11.7c0.4,1.6,1.1,2.8,2,3.8
						c0.9,1,2.3,1.8,4.2,2.5c1.8,0.7,3.7,1,5.4,1c3.9,0,6.9-0.6,9-1.7c2.1-1.1,3.6-2.7,4.5-4.7c0.9-2,1.4-5,1.4-9.1
						c0-0.1,0-1-0.1-2.8v-1c0-0.4,0-1.1,0-2.2c0-1.1,0.1-1.7,0.1-1.9l-0.5-10c-0.2-3.3-0.4-5.3-0.6-5.9c-0.2-0.6-0.5-1-0.9-1.4
						c-0.9-0.7-2.6-1.2-5.1-1.7c-0.1-0.3-0.2-0.7-0.2-1c0.9-0.1,1.8-0.1,2.7-0.1c0.9,0,1.9,0,2.9,0.1c1.5,0.1,2.4,0.1,2.5,0.1
						l5.5-0.1h1.1l0,1.3c-2.8,0.4-4.5,0.8-5.1,1.3c-0.6,0.5-0.8,1.5-0.8,2.8c0,0.8,0,2.3,0.1,4.7l0.2,7.2v2.8l0.1,3.6
						c0,4.6-0.1,7.6-0.4,9.3c-0.4,2.3-0.9,4.1-1.6,5.4c-0.7,1.4-1.6,2.5-3,3.6c-1.3,1.1-3,2-5.2,2.6c-2.2,0.7-4.2,1.1-6.4,1.1
						c-3.3,0-5.7-0.3-7.2-0.7c-2.6-0.8-4.8-1.9-6.3-3.2c-1.6-1.3-2.7-2.6-3.3-3.9c-0.8-1.7-1.2-4.2-1.2-7.5v-2.4l-0.1-9.7l0.1-7.8
						v-5.3c0-1.3-0.2-2.3-0.5-2.8c-0.3-0.4-0.6-0.6-1.1-0.6l-2.1,0c-1.5,0-2.5-0.2-2.9-0.5c-0.1-0.2-0.1-0.4-0.1-0.5
						c0-0.2,0.1-0.4,0.2-0.5c0.2-0.1,0.6-0.2,0.9-0.2h0.8l2.3,0h5.5L691.5,534.5z M723.1,534.7c0.4,0,0.7-0.1,0.8-0.1
						c0.8,0,2.1,0,3.9,0.1c1,0,1.6,0,2,0c0.5,0,1.6,0,3.2-0.1l5.9-0.3c1.6-0.1,3.3-0.2,5.4-0.2c3.6,0,6.5,0.6,8.7,1.6
						c2.2,1,3.8,2.6,4.9,4.8c1.2,2.2,1.7,4.4,1.7,6.5c0,3.6-1.3,6.7-3.8,9.3c-2.5,2.6-5.9,4-10.3,4c-1.2,0-2.2-0.1-3-0.4
						c-0.8-0.2-1.7-0.7-2.8-1.4c-0.5-0.3-0.7-0.6-0.8-0.9c0.1-0.1,0.2-0.3,0.4-0.3c0.3,0,0.7,0.1,1,0.2c0.8,0.3,1.8,0.4,3,0.4
						c1.8,0,3.6-0.4,5.2-1.3s2.8-2.2,3.7-3.8c0.8-1.7,1.2-3.4,1.2-5.2c0-1.8-0.4-3.5-1.3-5.2c-0.9-1.7-2-3.1-3.5-4.1
						c-0.8-0.6-2-1-3.7-1.5c-1.7-0.4-3-0.6-3.9-0.6c-2.9,0-4.6,0.2-5.1,0.6l0,0.5l0.1,3.9l0,0.7c0,0.6-0.1,1.6-0.1,2.8
						c0,4.7,0.1,7.6,0.2,8.8v2l0.4,15.8c0,0.2,0,0.7-0.1,1.3c0,0.6-0.1,1.2-0.1,1.6c0,1.1,0.1,1.9,0.3,2.5c0.6,0.2,2.2,0.6,4.9,1.1
						c1.2,0.3,1.9,0.5,2,0.5c0.2,0,0.3,0.2,0.5,0.4c-0.1,0.3-0.2,0.6-0.4,0.7c-0.1,0.1-0.5,0.1-0.9,0.1c-0.3,0-0.9-0.1-1.9-0.1
						c-2-0.2-3.5-0.3-4.7-0.3l-6.1,0.2l-3.7-0.1c-0.2,0-0.9,0-2,0l0-0.9l4.5-0.9c0.8-0.2,1.2-0.4,1.3-0.6c0.2-0.3,0.3-0.9,0.3-1.9
						c0-0.2,0-0.7,0-1.4c0-0.5,0-1.2,0-2c0-2.7-0.1-8.5-0.3-17.4c-0.1-4.1-0.1-8.4-0.1-12.7V541c0-1.6-0.2-2.7-0.8-3.1
						c-0.8-0.8-3-1.4-6.4-1.9c-0.1-0.3-0.1-0.5-0.1-0.7C722.9,535.2,723,535,723.1,534.7 M764.7,556.8c0-2.4,0.3-4.5,0.8-6.3
						c0.6-1.8,1.5-3.8,2.9-6c1.3-2.2,3-4,4.9-5.4c1.9-1.5,4.5-2.7,7.9-3.8c2.4-0.8,5.3-1.2,9-1.2c2.4,0,4.8,0.3,7.1,1
						c2.3,0.7,4.4,1.6,6.3,2.7c1.9,1.1,3.8,2.9,5.7,5.3c1.3,1.6,2.3,3.4,3,5.3c0.9,2.5,1.3,5.1,1.3,7.8c0,3-0.3,5.6-0.8,7.6
						c-0.6,2-1.6,4-3,5.9c-1.1,1.6-3,3.3-5.6,5.3c-1.7,1.3-3.9,2.4-6.5,3.2c-2.6,0.8-5.4,1.2-8.4,1.2c-3.1,0-5.8-0.4-8.2-1.1
						c-2.4-0.7-4.4-1.6-6-2.6c-1.6-1-3.3-2.5-4.9-4.6c-1.7-2-3-4.2-3.9-6.6C765.1,562.3,764.7,559.6,764.7,556.8 M788.7,578.3
						c1.9,0,4-0.3,6-0.8c2.1-0.5,4-1.5,5.6-2.7c1.6-1.2,2.9-2.7,3.8-4.2c0.9-1.6,1.6-3.7,2.2-6.2c0.6-2.5,0.8-5.1,0.8-7.6
						c0-3.1-0.5-6.3-1.4-9.3c-0.7-2.4-1.9-4.4-3.5-6.3c-1.6-1.8-3.6-3.3-5.8-4.2c-2.3-1-4.7-1.6-7.3-1.6c-2.1,0-4.1,0.4-6.2,1
						c-2,0.7-3.7,1.6-4.9,2.7c-1.3,1.1-2.5,2.6-3.6,4.6c-1.1,2-1.9,4.1-2.5,6.5c-0.6,2.4-0.9,4.5-0.9,6.3c0,1.9,0.3,4.1,0.9,6.5
						c0.6,2.5,1.4,4.5,2.4,6.3c1,1.7,2.3,3.3,3.7,4.7c1.5,1.4,3.1,2.5,4.9,3.2C784.7,577.9,786.7,578.3,788.7,578.3"/>
					<path class="st2" d="M835.4,578.6l0.1-2.4c2.9-0.3,4.7-0.9,5.5-1.8c0.5-0.5,0.9-2,1.2-4.3l0.4-12.3l0.5-12.6c0-0.8,0-1.2,0-1.4
						c0-3.3-0.2-5.1-0.6-5.7c-0.4-0.5-1.9-1-4.4-1.5c-0.7-0.1-1.2-0.3-1.6-0.4c0-0.6,0-1.1,0-1.5v-1.1c0.8,0,1.9-0.1,3-0.1l10.2,0.3
						c0.2,0,0.6,0.1,0.9,0.1l1.6,0c0.4,0.5,0.8,1.1,1.2,1.8c0.8,1.7,2,4.2,3.4,7.4l0.4,0.9l5.4,11.8c0.1,0.3,0.3,0.7,0.6,1.2
						c0.4,0.8,0.7,1.6,1.1,2.4c0.4,0.8,0.8,1.6,1.2,2.5c0.4,0.9,0.8,1.7,1.1,2.4c0.3-0.6,0.7-1.2,0.9-1.8c0.9-2.1,1.8-4.1,2.7-5.9
						c1.5-3.2,3.6-8,6.2-14.4c0.4-1,1.1-2.6,2.1-4.7c0.9-2.1,1.5-3.2,1.6-3.3c0.2-0.2,0.6-0.3,1.2-0.3c0.2,0,0.6,0,1.1,0
						c1.2-0.1,2.7-0.1,4.3-0.2c2.4,0,4.4-0.1,5.8-0.2c1.5-0.1,2.3-0.2,2.5-0.2c0.2,0,0.5,0,0.8,0c0,0.3,0,0.6,0,0.8l0,1
						c0,0.2,0,0.6,0,0.9c-2.2,0.3-4,0.8-5.3,1.5c-0.9,0.5-1.4,1-1.4,1.7v0.5l0.6,10.6c0.1,0.9,0.3,5.8,0.6,14.5
						c0.1,1.9,0.2,4.4,0.5,7.4c0,0.4,0,0.7,0,0.8c0,0.6,0.1,0.9,0.4,1.1c0.2,0.1,2.3,0.8,6.2,2c0,0.4,0,0.7,0,0.8c0,0.5,0,1,0,1.5
						c-0.6,0-2.2-0.1-4.7-0.4c-2.5-0.3-4.9-0.4-7.1-0.4c-3.3,0-6.6,0.1-9.8,0.4c-0.4,0-0.8,0.1-1.2,0.1l0.1-2.4
						c0.9-0.4,2.2-0.7,3.8-0.9c1.1-0.2,1.8-0.5,2.1-0.9c0.3-0.4,0.5-1.6,0.5-3.7c0-0.8,0-1.4,0-2c-0.1-2.5-0.2-5.8-0.2-10.1
						l-0.6-12.3c0-1.7-0.1-2.9-0.2-3.6l-8.6,19.8c-0.2,0.4-0.5,1.1-0.9,2c-0.5,1.1-0.9,1.9-1.1,2.4c-1.8,4.3-3,7.5-3.7,9.8
						c-0.2,0.6-0.5,1.3-0.8,2.3l-2.7,0l-1.8-5.3c-0.6-1.4-1.5-3.5-2.8-6.3c-0.8-1.6-1.4-3-1.8-4c-0.2-0.4-0.4-0.7-0.4-0.9l-0.4-0.8
						c0-0.1,0-0.2-0.1-0.3l-5.1-11.1l-3.2-6.8l-0.3,16.4l-0.2,10.6c0,1.7,0.3,3,1,3.8s2.1,1.4,4.2,1.9l1.6,0.4v2.5
						c-1.4,0-2.8-0.1-4.3-0.3c-1.5-0.1-3.6-0.2-6.1-0.2C841.7,578.4,839.4,578.5,835.4,578.6 M897.9,578.6h0.7
						c1.6,0,3.2-0.1,4.9-0.4l1.4-0.3c5.4,0.4,8.8,0.6,10.3,0.6c0-0.3,0-0.5,0-0.8c0-0.3,0-0.9,0-1.7c-1.5-0.2-2.3-0.3-2.5-0.4
						c-1.5-0.2-2.5-0.5-3-0.9c-0.3-0.2-0.5-0.7-0.5-1.3c0-0.4,0.2-1.3,0.7-2.5c1.6-4.4,2.5-7.1,3.1-8.2l13.2,0l2.7,6.8l1.4,3.4
						c0.1,0.3,0.2,0.6,0.2,0.9c0,0.3-0.1,0.6-0.3,0.8c-0.2,0.1-0.9,0.4-2,0.7l-3.9,0.8c-0.1,0.8-0.1,1.5-0.1,2.4l1.7,0l5.9-0.3
						c0.8-0.1,2.1-0.1,3.9-0.1c1.6,0,3.5,0.1,5.6,0.3c2,0.1,4,0.2,5.7,0.2c0-0.3,0-0.6,0-0.8c0-0.4,0-0.9-0.2-1.7
						c-1.1-0.4-2.1-0.7-3.1-0.8c-0.9-0.1-1.6-0.3-2-0.7c-0.2-0.1-0.6-0.7-1-1.7c-0.8-1.8-1.5-3.3-1.9-4.5c-0.8-2.2-1.5-3.8-1.9-4.9
						c-0.8-1.8-1.7-4.1-2.8-7c-1.1-2.9-2.4-5.8-3.7-8.9l-6-14.3l-0.3-0.6h-1.6h-2.2l-8.2,21.6l-7,18.4c-0.6,1-1,1.7-1.4,2
						c-0.4,0.3-1.5,0.6-3.3,0.9c-1.1,0.2-1.9,0.4-2.3,0.5L897.9,578.6z M914.2,559.2l5-13.4c0.7,1.5,1.6,3.5,2.7,6.3
						c1.1,2.8,2,5.1,2.7,7.3l-0.9,0C922.8,559.3,919.6,559.2,914.2,559.2 M948.4,576.6c0,0.4-0.1,0.8-0.1,1.1c0,0.1,0,0.5,0,1.1h1.5
						c1.2,0,2.5,0,4-0.2l4.8-0.3c0.3,0,0.7,0,1.3,0c0.9,0,3.9,0.2,8.9,0.7l1.4,0c0.1,0,0.4,0,0.8,0c0.1-0.6,0.1-1.4,0.1-2.5
						c-1.3-0.5-2.8-0.9-4.7-1.4c-1-0.2-1.9-0.5-2.5-0.8l0.2-6.5l-0.1-7.7c0-0.9,0-1.7,0.1-2.4c1.1,0,1.9-0.1,2.4-0.1
						c1.7,0,2.9,0.2,3.6,0.7c0.4,0.3,1.2,1.6,2.5,3.9c2.5,4.9,4.2,8.5,5.2,10.7c0.4,0.8,1.1,2.1,2.1,3.9l1.2,2.3
						c0.4,0,0.9-0.1,1.5-0.1c1.3-0.1,2.2-0.2,2.4-0.2l3.5,0c1.1,0,2,0,2.7,0.2h1.4l1.8,0.2l0.7,0h0.9c0-0.3,0-0.6,0-0.8
						c0-0.3,0-0.7-0.2-1c-0.6-0.4-1.4-0.8-2.4-1.2c-1.3-0.5-2.2-0.9-2.6-1.4c-0.4-0.4-1.4-1.8-2.7-4.1l-5.5-9
						c-0.6-1-1.4-2.2-2.4-3.5c-0.5-0.7-0.8-1.2-1.1-1.7c3.2-0.9,5.5-2.4,7-4.3c1.5-1.9,2.3-4.1,2.3-6.4c0-3.2-1.4-5.9-4.2-8.3
						c-2.8-2.4-6.5-3.6-11.3-3.6c-3,0-5.9,0.1-8.6,0.4l-4.3,0.2l-1.8,0.1c-0.1,0-1,0-2.7-0.2c-1.6,0-2.7,0-3.2,0c-1,0-2,0.1-3.2,0.3
						l-0.1,0.4l0,2.1c0.6,0.1,1.9,0.2,3.7,0.3l2.1,0.4c0.1,1.3,0.2,4.4,0.2,9.2c0,2.2,0,4.5-0.1,7.1l-0.1,1.9l0.1,3.3l-0.1,4.1
						l0,7.7c0,1.9,0,3-0.1,3.3c0,0.2-0.1,0.5-0.2,1c-0.9,0.4-2,0.6-3.2,0.8C949.9,576,949,576.2,948.4,576.6 M964,554.1v-0.9
						c0-1.7,0-3.1,0.1-4.1l0-3.8l0.1-2.9l0-4.7l0-0.7c0.8-0.1,1.6-0.2,2.7-0.2c2.2,0,3.9,0.2,4.9,0.5c1.4,0.5,2.5,1.2,3.3,2.1
						c0.6,0.6,1.1,1.6,1.5,2.9c0.4,1.3,0.6,2.6,0.6,4.1c0,2.4-0.8,4.2-2.5,5.7c-1.6,1.4-4.4,2.1-8.4,2.1
						C965.9,554.1,965.2,554.1,964,554.1 M997.9,578.7c0.5,0,1.5-0.1,3-0.2c2.4-0.2,4.1-0.3,5.4-0.3l6.1,0c2.8,0.3,4.3,0.4,4.6,0.5
						c0.4,0,0.8,0.1,0.9,0.1c0.1,0,0.5,0,1.3,0c0.2,0,0.4,0,0.7,0c0-0.5,0-0.9,0-1.2c0-0.4,0-1-0.1-1.7c-1.2-0.2-1.9-0.3-2.1-0.3
						c-1.2-0.1-2.5-0.4-3.9-0.6c-0.1-0.3-0.2-0.6-0.2-0.8l0.1-1.3l-0.1-7l0.1-4.7l0-9.2c0-2.1,0-5.1,0.1-9c0-0.7-0.1-1.5-0.1-2.5
						c0-1.1,0.1-2,0.2-2.6c0.8-0.3,1.7-0.6,2.9-0.9c1.2-0.3,2.3-0.6,3.2-0.9c0-0.7,0.1-1.1,0.1-1.5c0-0.3,0-0.7,0-1.1
						c-0.4,0-1.5,0.1-3.2,0.2c-3,0.2-5.2,0.3-6.5,0.3c-0.3,0-1.1,0-2.3-0.1l-9.9-0.4l0.1,3c0.3,0.1,0.7,0.1,1.2,0.1
						c2.1,0.1,3.7,0.4,4.6,0.8c0.1,0.5,0.2,0.9,0.2,1.1l0,1.5l0.2,3.9l-0.1,1.9l0,4.6c0,0.1-0.1,2.5-0.3,7.1l0,1.9l-0.1,8l0,4.1
						c0,1.3-0.2,2.3-0.7,3c-0.8,0.4-1.8,0.8-3.3,1.1c-1.1,0.2-1.8,0.5-2.3,0.6L997.9,578.7L997.9,578.7z M1052.6,534.7
						c-2.2-0.8-3.9-1.2-5.2-1.5c-2.2-0.4-3.8-0.6-4.9-0.6c-5.1,0-9,1.3-11.7,3.9c-2.6,2.6-4,5.7-4,9.4c0,1.8,0.5,3.7,1.4,5.7
						s2.3,3.6,3.9,4.8c1.6,1.2,4.6,2.5,8.9,4.1c4.2,1.5,6.9,2.7,7.8,3.6c1.6,1.5,2.4,3,2.4,4.7c0,1.4-0.4,2.7-1.4,3.9
						c-0.9,1.2-2.1,2.1-3.6,2.6s-2.9,0.8-4.1,0.8c-1.4,0-2.7-0.2-3.9-0.7c-1.2-0.4-2.2-1-3.1-1.7c-0.8-0.8-1.6-1.7-2.4-2.9
						c-0.3-0.5-1-2.1-2.1-4.7l-3.3,0.1v1.3c0,0.7,0,1.7,0,3.2c0.1,2.9,0.2,4.5,0.2,4.8v0.4c0,0.3,0.2,0.6,0.3,0.7
						c0.3,0.3,1,0.5,2.2,0.8l4.2,1.2c2.3,0.5,4.1,0.7,5.8,0.7c2.5,0,4.5-0.2,6-0.7s3.1-1.1,4.5-2s2.5-1.7,3.2-2.5c1-1,1.7-2,2.1-3.2
						c0.8-2.1,1.2-4.2,1.2-6.4c0-2-0.3-3.7-0.8-5c-0.5-1.3-1.5-2.7-2.9-4.1c-1-1.1-2.6-2.1-4.6-3c-2-0.9-3.7-1.6-5.1-2
						c-4.2-1.2-7-2.5-8.3-3.9s-1.9-2.8-1.9-4.3c0-1.7,0.7-3.3,2-4.4s3.1-1.8,5.4-1.8c2.4,0,4.4,0.9,6.2,2.8c1,1,2,3.2,3,6.2l0.4,0
						l2.5,0.2l0.4-0.1c0.1-0.5,0.1-0.9,0.1-1.3c0-1.4-0.1-3.2-0.4-5.6C1053,536.8,1052.8,535.5,1052.6,534.7 M1063.2,531.8
						c-0.2,0.4-0.4,1.3-0.8,2.7c-1.3,4.5-2.3,7.4-3,9c0.3,0.3,1,0.8,2.1,1.4c0.3,0,0.7-0.4,1.3-1.1c2-2.6,3.5-4.1,4.5-4.8
						c0.8-0.4,2.2-0.6,4.4-0.6c4,0,6.3,0,7,0.1c0.2,0,0.4,0.1,0.5,0.2c0.1,0.1,0.2,0.2,0.3,0.5c0.1,0.8,0.2,2.9,0.2,6.5l0.2,13.1
						c0,6-0.1,10.5-0.2,13.2c0,0.7-0.2,1.3-0.4,1.7c-0.9,0.5-2.6,1-5,1.6c-1.4,0.3-2.4,0.8-2.9,1.5v0.3l0,0.8c0,0.2,0,0.4,0.1,0.8
						c0.4,0,1.2,0,2.5-0.1c3.4-0.3,5.4-0.4,6.1-0.4c4.4,0,7.4,0,9,0.2c1.6,0.1,3.7,0.2,6.1,0.2c0.3,0,0.8,0,1.3,0
						c0.1-0.4,0.1-0.7,0.1-0.9s0-0.7-0.2-1.5c-0.6-0.2-1.2-0.4-1.9-0.5c-1.6-0.4-2.4-0.5-2.6-0.6c-1-0.1-1.7-0.3-2-0.5
						c-0.3-0.8-0.4-2-0.4-3.6l0-4.5l-0.1-11v-10.2l0-4.6c0-0.6,0.1-1.3,0.2-2.2c1-0.1,1.8-0.1,2.5-0.1c4.4,0,6.8,0,7.4,0.2
						c0.4,0.1,0.7,0.3,0.9,0.6c0.2,0.2,0.6,1.1,1.3,2.9c0.7,1.7,1.4,3,2,3.9c0.7-0.1,1.6-0.3,2.5-0.6c0.1-0.4,0.1-0.9,0.1-1.6l0-1.8
						l0-3.1c0-3.3,0-5.6,0-7.2c-0.4,0-0.8,0-1,0l-1.6,0c-0.2,0.4-0.3,0.7-0.4,0.8c-0.3,0.9-0.7,1.5-1,1.7l-2,0.3h-10.7h-7.8h-4.2
						l-0.7,0c-1.4,0-3,0-4.8,0c-2.8,0-4.4,0-4.8-0.1c-0.3-0.4-0.8-1.1-1.5-2.2c-0.1-0.1-0.2-0.3-0.3-0.6L1063.2,531.8L1063.2,531.8z
						 M1102.2,578.6h0.6c1.6,0,3.2-0.1,4.9-0.4l1.4-0.3c5.4,0.4,8.9,0.6,10.3,0.6c0-0.3,0.1-0.5,0.1-0.8c0-0.3,0-0.9,0-1.7
						c-1.4-0.2-2.3-0.3-2.5-0.4c-1.5-0.2-2.5-0.5-3.1-0.9c-0.3-0.2-0.5-0.7-0.5-1.3c0-0.4,0.2-1.3,0.7-2.5c1.6-4.4,2.5-7.1,3.1-8.2
						l13.2,0l2.7,6.8l1.4,3.4c0.1,0.3,0.2,0.6,0.2,0.9c0,0.3-0.1,0.6-0.3,0.8c-0.2,0.1-0.8,0.4-2,0.7l-3.9,0.8
						c0,0.8-0.1,1.5-0.1,2.4l1.7,0l5.9-0.3c0.8-0.1,2.2-0.1,4-0.1c1.6,0,3.5,0.1,5.6,0.3c2.1,0.1,3.9,0.2,5.7,0.2c0-0.3,0-0.6,0-0.8
						c0-0.4,0-0.9-0.2-1.7c-1.1-0.4-2.1-0.7-3.1-0.8c-0.9-0.1-1.6-0.3-2-0.7c-0.2-0.1-0.6-0.7-1-1.7c-0.9-1.8-1.5-3.3-1.9-4.5
						c-0.8-2.2-1.5-3.8-1.9-4.9c-0.8-1.8-1.7-4.1-2.8-7c-1.1-2.9-2.3-5.8-3.7-8.9l-6-14.3l-0.3-0.6h-1.6h-2.2l-8.2,21.6l-7,18.4
						c-0.6,1-1,1.7-1.4,2c-0.4,0.3-1.5,0.6-3.3,0.9c-1.1,0.2-1.9,0.4-2.4,0.5L1102.2,578.6z M1118.5,559.2l5-13.4
						c0.7,1.5,1.6,3.5,2.7,6.3c1.1,2.8,2,5.1,2.7,7.3l-0.9,0C1127.2,559.3,1123.9,559.2,1118.5,559.2"/>
				</g>
				<rect x="576.4" y="485.1" class="st2" width="575.6" height="3.3"/>
			</g>
		</g>
		<g>
			<path class="st0" d="M576.1,442.2V317.9h46.6c26.3,0,45.8,18.1,45.8,42.7c0,23.8-19.5,42.2-45.8,42.2H608v39.4L576.1,442.2
				L576.1,442.2z M608.1,373.1h14.2c8.6,0,13.7-5.5,13.7-12.6c0-7.3-5.2-12.8-13.7-12.8h-14.2V373.1z"/>
			<path class="st0" d="M679.6,385.5v-67.6h32.1v67.6c0,16.3,11.2,28,26.3,28c15.5,0,26.4-11.9,26.4-28v-67.6h32v67.6
				c0,33.4-24.9,58-58.4,58C704.7,443.6,679.6,418.9,679.6,385.5z"/>
			<path class="st0" d="M809.6,380c0-35.8,27.7-63.4,65.4-63.4c32.8,0,56.9,22,60.8,51.2h-32c-3.8-11.9-14-21.1-28.9-21.1
				c-19,0-32,14.5-32,33.4c0,19,13.1,33.5,32,33.5c14.8,0,25.3-9,28.7-21.1h32.3c-4.3,29.7-28.2,51.2-61,51.2
				C837.6,443.6,809.6,416.1,809.6,380z"/>
			<path class="st0" d="M951.5,442.2V317.9h46.6c26.3,0,45.8,18.1,45.8,42.7c0,23.8-19.5,42.2-45.8,42.2h-14.7v39.4L951.5,442.2
				L951.5,442.2z M983.5,373.1h14.2c8.6,0,13.7-5.5,13.7-12.6c0-7.3-5.2-12.8-13.7-12.8h-14.2V373.1z"/>
			<path class="st0" d="M1058.3,442.2V317.9h46c25.9,0,45.6,18.3,45.6,41.7c0,15.2-8.5,28-21.6,35.1l23.2,47.5h-34.7l-18.5-41.5
				h-8.1v41.5L1058.3,442.2L1058.3,442.2z M1090.1,374.1h12.6c9.3,0,15.2-5.7,15.2-14c0-8.1-6-13.7-15.4-13.7h-12.4L1090.1,374.1
				L1090.1,374.1z"/>
		</g>
	</g>
</g>
</svg>
